<?xml version="1.0" standalone="no"?>
<!DOCTYPE svg PUBLIC "-//W3C//DTD SVG 20010904//EN"
 "http://www.w3.org/TR/2001/REC-SVG-20010904/DTD/svg10.dtd">
<svg version="1.0" xmlns="http://www.w3.org/2000/svg"
 width="500.000000pt" height="500.000000pt" viewBox="0 0 500.000000 500.000000"
 preserveAspectRatio="xMidYMid meet">

<g transform="translate(0.000000,500.000000) scale(0.100000,-0.100000)"
fill="#000000" stroke="none">
<path d="M2638 4910 c-131 -22 -258 -152 -334 -340 -14 -33 -36 -106 -50 -162
-14 -56 -41 -142 -60 -191 -19 -50 -32 -92 -30 -95 11 -10 174 49 235 85 133
78 252 226 301 372 29 86 45 213 36 284 -8 64 -6 62 -98 47z"/>
<path d="M2824 4883 c4 -16 9 -67 13 -114 l6 -86 49 33 c54 36 93 47 153 42
32 -2 44 -10 62 -36 l22 -33 7 35 c8 47 -10 74 -72 108 -43 23 -209 78 -236
78 -6 0 -8 -11 -4 -27z"/>
<path d="M1284 4253 c-95 -147 -164 -313 -199 -478 -105 -494 48 -735 465
-735 270 0 519 140 720 405 129 170 257 409 334 624 l26 73 -66 -60 c-119
-109 -292 -182 -471 -198 -75 -7 -79 -8 -113 -47 -125 -145 -250 -211 -400
-211 -185 0 -274 84 -301 284 -13 99 0 248 30 338 11 31 18 58 16 60 -2 2 -20
-23 -41 -55z"/>
<path d="M3545 4009 c170 -182 289 -443 331 -724 l7 -50 18 75 c29 124 41 239
37 360 -3 103 -6 121 -32 171 -35 71 -114 149 -186 185 -43 22 -73 29 -140 32
l-85 5 50 -54z"/>
<path d="M1745 2400 c13 -43 58 -102 118 -151 77 -65 116 -83 50 -25 -28 26
-80 81 -114 124 -37 46 -59 67 -54 52z"/>
<path d="M830 1525 c0 -58 -3 -75 -14 -75 -9 0 -19 20 -27 55 l-12 55 -50 0
c-55 0 -53 3 -31 -84 5 -20 2 -26 -10 -26 -12 0 -16 -10 -16 -45 l0 -44 77 -3
c50 -2 78 -7 81 -15 2 -9 -11 -13 -47 -13 l-50 0 -11 -41 c-7 -27 -18 -43 -31
-46 -15 -4 -19 -14 -19 -44 l0 -39 43 0 c55 0 69 15 95 100 l20 65 1 -87 1
-88 55 0 55 0 0 105 0 105 75 0 75 0 0 44 c0 26 -5 46 -12 48 -9 3 -8 16 5 49
9 25 17 48 17 52 0 4 -22 7 -49 7 l-50 0 -17 -55 c-26 -81 -44 -72 -44 20 l0
75 -55 0 -55 0 0 -75z"/>
<path d="M1157 1513 c-9 -50 -23 -93 -32 -99 -10 -8 -15 -28 -15 -64 l0 -53
48 7 c52 7 79 31 89 78 l6 28 128 0 129 0 0 55 0 55 -116 0 -116 0 7 40 7 40
-59 0 -59 0 -17 -87z"/>
<path d="M2158 1553 l-3 -38 -67 -3 -68 -3 0 -49 0 -49 68 -3 67 -3 0 -50 0
-50 -77 -3 -78 -3 0 -49 0 -50 225 0 225 0 0 50 0 50 -80 0 -80 0 0 55 0 55
70 0 70 0 0 50 0 50 -70 0 -70 0 0 40 0 40 -64 0 -65 0 -3 -37z"/>
<path d="M4030 1540 l0 -50 -80 0 -80 0 0 -50 0 -50 80 0 80 0 0 -50 0 -50
-80 0 -80 0 0 -55 0 -55 161 0 160 0 -30 -42 c-17 -24 -42 -56 -55 -73 l-25
-30 -39 38 c-38 38 -40 38 -109 35 l-71 -3 70 -88 70 -87 -23 -35 c-27 -39
-63 -55 -120 -55 l-39 0 0 -50 0 -50 96 0 96 0 37 40 37 40 35 -40 36 -40 92
0 91 0 0 50 0 50 -41 0 c-35 0 -47 7 -90 48 l-49 47 85 118 c84 116 85 118 85
177 l0 60 -85 0 -85 0 0 50 0 50 85 0 85 0 0 50 0 50 -85 0 -85 0 0 50 0 50
-65 0 -65 0 0 -50z"/>
<path d="M1730 1540 l0 -40 -70 0 -70 0 0 -270 0 -270 70 0 70 0 0 -55 0 -55
-70 0 -70 0 0 -50 0 -50 175 0 176 0 24 26 25 27 0 -32 0 -31 230 0 230 0 0
50 0 50 -80 0 -80 0 0 65 0 65 70 0 70 0 0 55 0 55 -70 0 -70 0 0 45 0 45 -65
0 -65 0 0 -45 0 -45 -70 0 -70 0 0 -55 0 -55 70 0 71 0 -3 -62 -3 -63 -82 -3
-83 -3 0 46 0 45 -49 0 -50 0 -3 -37 c-3 -33 -6 -38 -28 -38 -23 0 -25 3 -25
50 l0 50 45 3 c29 2 53 11 68 24 22 21 22 25 22 269 l0 248 -67 3 -68 3 -3 38
-3 37 -50 0 -49 0 0 -40z m0 -310 c0 -153 -1 -160 -20 -160 -19 0 -20 7 -20
160 0 153 1 160 20 160 19 0 20 -7 20 -160z m150 16 c0 -158 -3 -176 -31 -176
-18 0 -19 10 -19 160 l0 160 25 0 25 0 0 -144z"/>
<path d="M2786 1565 c-15 -11 -48 -15 -123 -15 l-103 0 0 -45 0 -45 55 0 55 0
0 -35 0 -35 -60 0 -60 0 0 -50 0 -50 60 0 60 0 0 -35 c0 -35 0 -35 -44 -35
l-44 0 -5 -52 c-4 -29 -9 -110 -13 -181 -3 -70 -10 -130 -15 -133 -5 -3 -9
-30 -9 -60 0 -47 3 -54 20 -54 28 0 68 20 76 39 4 9 13 99 19 201 l12 185 1
-212 2 -213 55 0 55 0 1 223 2 222 14 -195 c17 -228 21 -240 88 -240 l45 0 0
42 c0 23 -6 49 -14 57 -11 13 -36 258 -36 354 0 14 -9 17 -50 17 l-50 0 0 35
0 35 70 0 70 0 0 50 0 50 -70 0 -70 0 0 35 c0 34 1 35 40 35 55 0 90 44 90
111 0 15 -103 10 -124 -6z"/>
<path d="M3208 1298 l-3 -283 -50 -6 c-27 -4 -89 -13 -137 -19 l-88 -12 0 -54
c0 -63 -8 -61 145 -39 148 21 135 28 135 -65 l0 -80 60 0 59 0 3 87 3 87 33 8
c31 8 32 10 32 64 l0 56 -32 -4 -33 -3 -3 273 -2 272 -60 0 -60 0 -2 -282z"/>
<path d="M3630 1545 l0 -35 -55 0 -55 0 0 -55 0 -55 55 0 55 0 0 -87 c0 -79
-4 -98 -39 -183 -25 -62 -46 -98 -60 -105 -17 -8 -21 -19 -21 -62 l0 -53 35 0
c25 0 44 8 60 25 l25 24 0 -47 c0 -57 -12 -72 -57 -72 -33 0 -33 0 -33 -50 l0
-50 74 0 c65 0 79 3 103 24 l28 24 5 199 5 198 33 3 c32 3 32 4 32 58 l0 54
-35 0 -35 0 0 50 0 50 40 0 40 0 0 54 0 55 -37 3 c-35 3 -38 6 -41 36 l-3 32
-60 0 -59 0 0 -35z"/>
<path d="M2934 1523 c38 -133 49 -164 62 -178 11 -11 37 -15 95 -15 l79 0 0
55 0 55 -40 0 c-38 0 -40 1 -53 48 l-14 47 -67 3 c-61 3 -67 1 -62 -15z"/>
<path d="M1346 1283 c-38 -110 -39 -111 -66 -53 l-23 50 -54 0 c-29 0 -53 -4
-53 -9 0 -5 23 -59 50 -121 28 -62 50 -117 50 -123 0 -25 -54 -153 -73 -174
-11 -13 -29 -23 -39 -23 -15 0 -18 -8 -18 -50 l0 -50 56 0 c30 0 64 5 76 11
11 6 32 38 48 71 l27 61 18 -47 c30 -79 49 -96 106 -96 l49 0 0 50 c0 37 -4
52 -16 57 -8 3 -35 46 -60 96 l-46 90 61 162 c34 88 61 164 61 168 0 4 -28 7
-63 7 l-64 0 -27 -77z"/>
<path d="M950 1327 c0 -18 53 -153 63 -159 6 -4 29 -8 50 -8 37 0 37 0 37 40
0 28 -4 40 -14 40 -8 0 -20 19 -28 43 -13 41 -14 42 -60 45 -27 2 -48 1 -48
-1z"/>
<path d="M2940 1279 c0 -17 29 -130 42 -162 15 -38 36 -47 112 -47 l66 0 0 55
c0 54 0 55 -30 55 -33 0 -44 15 -55 73 l-7 37 -64 0 c-40 0 -64 -4 -64 -11z"/>
<path d="M690 1115 c0 -8 -7 -15 -15 -15 -11 0 -15 -12 -15 -50 0 -38 4 -50
15 -50 11 0 15 -12 15 -50 0 -48 1 -50 45 -76 25 -14 45 -29 45 -34 0 -12 -28
-20 -71 -20 l-39 0 0 -45 0 -45 70 0 c59 0 77 4 109 26 l40 26 44 -26 c34 -20
57 -26 105 -26 l62 0 0 45 0 45 -38 0 c-21 0 -46 6 -55 13 -16 11 -13 15 23
37 38 24 40 27 40 77 0 40 4 53 15 53 11 0 15 12 15 50 0 38 -4 50 -15 50 -8
0 -15 7 -15 15 0 11 -12 15 -50 15 -38 0 -50 -4 -50 -15 0 -12 -16 -15 -85
-15 -69 0 -85 3 -85 15 0 12 -13 15 -55 15 -42 0 -55 -3 -55 -15z m280 -132
c0 -25 -10 -36 -50 -60 l-35 -21 -42 25 c-32 18 -43 31 -43 49 0 23 2 24 85
24 74 0 85 -2 85 -17z"/>
<path d="M930 339 l0 -172 108 5 c91 4 114 8 139 26 43 30 56 69 52 154 -7
128 -46 158 -211 158 l-88 0 0 -171z m180 71 c15 -15 20 -33 20 -72 0 -63 -19
-88 -67 -88 l-33 0 0 90 0 90 30 0 c17 0 39 -9 50 -20z"/>
<path d="M1310 475 c0 -35 0 -35 45 -35 45 0 45 0 45 35 0 35 0 35 -45 35 -45
0 -45 0 -45 -35z"/>
<path d="M1820 475 c0 -35 0 -35 45 -35 45 0 45 0 45 35 0 35 0 35 -45 35 -45
0 -45 0 -45 -35z"/>
<path d="M2063 483 c-32 -18 -43 -31 -43 -49 0 -17 -6 -24 -20 -24 -16 0 -20
-7 -20 -35 0 -28 4 -35 20 -35 18 0 20 -7 20 -70 0 -83 18 -110 74 -110 49 0
66 9 66 35 0 17 -7 25 -22 27 -20 3 -23 10 -26 61 -3 55 -2 57 23 57 22 0 25
4 25 35 0 30 -3 35 -24 35 -23 0 -25 4 -28 49 l-3 49 -42 -25z"/>
<path d="M2570 340 l0 -170 45 0 45 0 0 170 0 170 -45 0 -45 0 0 -170z"/>
<path d="M2940 340 l0 -170 50 0 50 0 0 70 0 70 65 0 65 0 0 40 0 40 -65 0
c-58 0 -65 2 -65 20 0 18 7 20 75 20 l75 0 0 40 0 40 -125 0 -125 0 0 -170z"/>
<path d="M1534 410 c-35 -14 -54 -50 -54 -103 0 -58 19 -99 55 -115 34 -16 54
-15 88 3 l28 14 -3 -31 c-4 -40 -28 -56 -60 -41 -13 6 -42 14 -65 17 -50 7
-56 -5 -23 -47 37 -47 170 -48 216 -2 23 23 24 30 24 165 l0 140 -39 0 c-22 0
-41 -5 -43 -12 -3 -8 -11 -7 -28 5 -26 18 -62 21 -96 7z m105 -64 c17 -21 10
-87 -11 -100 -40 -25 -75 44 -48 94 12 23 42 26 59 6z"/>
<path d="M2285 410 c-31 -10 -55 -34 -55 -56 0 -18 72 -24 92 -7 20 18 63 13
63 -7 0 -10 -22 -21 -70 -32 -75 -19 -95 -36 -95 -79 0 -43 44 -72 98 -66 24
2 51 12 61 21 16 15 19 15 24 1 4 -10 20 -15 48 -15 l42 0 -7 38 c-3 20 -6 65
-6 98 0 87 -16 105 -100 110 -36 2 -78 -1 -95 -6z m105 -148 c0 -24 -19 -42
-46 -42 -28 0 -39 16 -24 35 10 12 21 16 63 24 4 0 7 -7 7 -17z"/>
<path d="M3357 403 c-11 -11 -17 -13 -17 -5 0 8 -16 12 -45 12 l-45 0 0 -120
0 -120 45 0 45 0 0 63 c0 75 16 111 51 115 32 4 58 50 37 63 -21 14 -53 10
-71 -8z"/>
<path d="M3554 406 c-106 -48 -98 -200 12 -236 82 -27 174 18 188 93 8 45 -12
105 -44 129 -34 25 -116 32 -156 14z m94 -58 c16 -16 16 -100 0 -116 -31 -31
-78 3 -78 56 0 56 46 92 78 60z"/>
<path d="M3874 410 c-35 -14 -54 -50 -54 -103 0 -58 19 -99 55 -115 34 -16 54
-15 88 3 l28 14 -3 -31 c-4 -40 -28 -56 -60 -41 -13 6 -42 14 -65 17 -50 7
-56 -5 -23 -47 37 -47 170 -48 216 -2 23 23 24 30 24 165 l0 140 -39 0 c-22 0
-41 -5 -43 -12 -3 -8 -11 -7 -28 5 -26 18 -62 21 -96 7z m105 -64 c17 -21 10
-87 -11 -100 -40 -25 -75 44 -48 94 12 23 42 26 59 6z"/>
<path d="M1310 290 l0 -120 45 0 45 0 0 120 0 120 -45 0 -45 0 0 -120z"/>
<path d="M1820 290 l0 -120 45 0 45 0 0 120 0 120 -45 0 -45 0 0 -120z"/>
</g>
</svg>
